<svg viewBox="0 0 24 24" width="24" height="24" xmlns="http://www.w3.org/2000/svg"><path fill="#fff" d="M14.978348,6.18321733 C18.5808918,7.41427311 21.1723707,10.8259975 21.1723707,14.8456034 C21.1723707,19.9012842 18,24 14,24 C18,22 18.5,18 17.8165643,14.9791197 C16.5852296,18.5811195 13.173547,21.172336 9.15457854,21.172336 C4.0983715,21.172336 0,18 0,14 C0.0406348932,14.1036162 0.0782075735,14.2068366 0.126901599,14.3029471 C2,18 6,18.5 9.02047568,17.8164886 C5.4188141,16.5848446 2.82704114,13.1737085 2.82704114,9.15439663 C2.82704114,4.0990099 6,0 10,0 C6,2 5.5,6 6.18343565,9.02117439 C7.41447634,5.4188805 10.8261589,2.82766395 14.8454215,2.82766395 C19.9013344,2.82766395 24,6 24,10 C22,6 18,5.5 14.978348,6.18321733 Z M12,14 C13.1045695,14 14,13.1045695 14,12 C14,10.8954305 13.1045695,10 12,10 C10.8954305,10 10,10.8954305 10,12 C10,13.1045695 10.8954305,14 12,14 Z"/></svg>