<svg xmlns="http://www.w3.org/2000/svg" width="18" height="18" viewBox="0 0 18 18"><path fill="#1da1f2" fill-rule="evenodd" d="M16.118 4.805v.45c0 1.227-.218 2.426-.654 3.6a10.482 10.482 0 01-1.964 3.272 9.52 9.52 0 01-3.19 2.414c-1.337.599-2.797.9-4.378.9a10.25 10.25 0 01-2.905-.41A9.657 9.657 0 01.45 13.846a8.3 8.3 0 00.818.041c.846 0 1.65-.136 2.414-.409a6.78 6.78 0 002.045-1.104 3.666 3.666 0 01-2.086-.737 3.715 3.715 0 01-1.268-1.759c.218.055.45.082.695.082.327 0 .64-.053.941-.164A3.565 3.565 0 011.964 8.61a3.57 3.57 0 01-.819-2.29v-.042c.491.273 1.023.423 1.596.45A3.952 3.952 0 011.595 5.46a3.798 3.798 0 01-.409-1.718c0-.655.15-1.254.45-1.8.9 1.09 1.991 1.964 3.273 2.618a10.232 10.232 0 004.132 1.105 3.811 3.811 0 01-.082-.819c0-.981.34-1.827 1.023-2.536a3.533 3.533 0 012.536-1.023c.519 0 1.009.096 1.473.287.437.19.818.463 1.145.818a6.714 6.714 0 002.291-.86c-.136.41-.34.792-.613 1.146-.273.328-.6.6-.982.818a7.516 7.516 0 002.045-.531 7.048 7.048 0 01-1.759 1.84z"/></svg>