<svg xmlns="http://www.w3.org/2000/svg" width="18" height="18" viewBox="0 0 18 18"><path fill="#fc0" d="M9 .002c.909 0 1.748.575 2.362 1.619l6.103 10.368c.615 1.043.703 2.043.248 2.816-.454.772-1.381 1.197-2.61 1.197H2.897c-1.229 0-2.156-.425-2.61-1.197-.455-.773-.367-1.773.248-2.816L6.638 1.62C7.252.577 8.09.002 9 .002zM8.999 11.35a1.149 1.149 0 100 2.298 1.149 1.149 0 000-2.298zm0-7.35c-.65 0-1.179.512-1.179 1.143l.279 4.056h.003c.04.448.425.801.898.801.437 0 .802-.3.886-.7.007-.033.008-.067.01-.1h.009l.274-4.057C10.18 4.512 9.651 4 9 4z"/></svg>