<svg viewBox="0 0 176 20" width="176" height="20" xmlns="http://www.w3.org/2000/svg"><defs><linearGradient id="a" x1="50%" x2="50%" y1="10%" y2="100%"><stop offset="0" stop-color="#fff"/><stop offset="1" stop-color="#fff" stop-opacity=".8"/></linearGradient></defs><g fill="url(#a)" fill-rule="evenodd"><path fill-rule="nonzero" d="M162.495 19.486v-8.337h9.87v8.337H175V.5h-2.635v8.337h-9.87V.5h-2.662v18.986zM150.367 19.486V2.813h6.534V.5h-15.705v2.313h6.535v16.673zM132.43.5c1.828 0 2.742.161 3.522.511 1.829.807 3.012 2.555 3.012 4.975 0 2.42-1.318 4.518-3.388 5.217v.054s.215.269.538.86l4.033 7.37h-3.012l-4.007-7.558h-4.06v7.557h-2.663V.5zm-.284 2.5H129v6.804h3.819c2.07 0 3.388-1.399 3.388-3.496 0-1.372-.591-2.474-1.775-2.985-.484-.215-1.075-.323-2.286-.323zM116.697.5l6.804 18.986h-2.743l-1.91-5.46h-7.153l-1.91 5.46h-2.715L113.874.5h2.823zM115.3 3.109h-.054s-.403 1.72-.726 2.716l-2.125 5.997h5.755l-2.097-5.997c-.323-.995-.753-2.716-.753-2.716zM105.51 19.486v-2.313h-8.848v-6.104h6.804V8.756h-6.804V2.813h8.391V.5H94v18.986zM65.245 19.5l.593-8.557c.107-1.435 0-3.188 0-3.188h.054s.647 1.993 1.078 3.188l2.022 5.501h4.043l2.022-5.5a136.051 136.051 0 001.078-3.19h.054s-.107 1.754 0 3.19l.593 8.556H81.5L79.936.5h-5.121L72.01 8.525c-.431 1.223-.97 3.136-.97 3.136h-.054s-.54-1.913-.971-3.136L67.212.5h-5.121l-1.591 19h4.745z"/><path d="M27.25.25C33.037.25 37 4.472 37 9.881c0 5.542-3.963 9.869-9.75 9.869s-9.75-4.327-9.75-9.869c0-5.41 3.963-9.631 9.75-9.631zm0 4.222c-2.946 0-5.031 2.322-5.031 5.41 0 3.218 2.085 5.646 5.031 5.646 2.946 0 5.031-2.428 5.031-5.647 0-3.087-2.085-5.41-5.031-5.41zM48.75.25c5.787 0 9.75 4.222 9.75 9.631 0 5.542-3.963 9.869-9.75 9.869S39 15.423 39 9.881C39 4.471 42.963.25 48.75.25zm0 4.222c-2.946 0-5.031 2.322-5.031 5.41 0 3.218 2.085 5.646 5.031 5.646 2.946 0 5.031-2.428 5.031-5.647 0-3.087-2.085-5.41-5.031-5.41z"/><path d="M16 19.5v-3.986H7.914c-.918 0-1.577.08-1.577.08v-.053s.688-.558 1.577-1.728L15.857 3.37V.5H.373v3.986h7.541c.918 0 1.577-.08 1.577-.08v.053s-.688.558-1.577 1.728L0 16.577V19.5h16z"/></g></svg>